<svg class="typst-doc" viewBox="0 0 242.339 96.121" width="323.118" height="128.161" xmlns="http://www.w3.org/2000/svg" xmlns:xlink="http://www.w3.org/1999/xlink"><path class="typst-shape" fill="#fff" d="M0 0v96.12h242.339V0Z"/><g class="typst-group"><g class="typst-group"><path class="typst-shape" fill="none" stroke="#000" stroke-width=".528" stroke-linecap="round" d="M5.67 22.31h66"/><g class="typst-group"><g class="typst-group"><g class="typst-group"><g class="typst-group"><use xlink:href="#a" class="typst-text" transform="matrix(1 0 0 -1 9.123 15.59)"/></g></g></g></g><path class="typst-shape" fill="none" stroke="#000" stroke-width=".528" stroke-linecap="round" d="M5.67 71.81h66"/><g class="typst-group"><g class="typst-group"><g class="typst-group"><g class="typst-group"><use xlink:href="#b" class="typst-text" transform="matrix(1 0 0 -1 9.42 85.523)"/></g></g></g></g><path class="typst-shape" fill="none" stroke="#000" stroke-width=".528" stroke-linecap="round" d="M77.17 22.31h88"/><g class="typst-group"><g class="typst-group"><g class="typst-group"><g class="typst-group"><g class="typst-group"><g class="typst-text" transform="matrix(1 0 0 -1 55.281 15.382)"><use xlink:href="#c"/><use xlink:href="#d" x="9.163"/><use xlink:href="#e" x="12.221"/></g><use xlink:href="#f" class="typst-text" transform="matrix(1 0 0 -1 73.618 15.382)"/><use xlink:href="#a" class="typst-text" transform="matrix(1 0 0 -1 77.897 15.382)"/><use xlink:href="#g" class="typst-text" transform="matrix(1 0 0 -1 84.19 15.382)"/><use xlink:href="#b" class="typst-text" transform="matrix(1 0 0 -1 89.08 15.382)"/><use xlink:href="#h" class="typst-text" transform="matrix(1 0 0 -1 94.778 15.382)"/></g></g></g></g></g><path class="typst-shape" fill="none" stroke="#000" stroke-width=".528" stroke-linecap="round" d="M77.17 71.81h88"/><g class="typst-group"><g class="typst-group"><g class="typst-group"><g class="typst-group"><g class="typst-group"><g class="typst-text" transform="matrix(1 0 0 -1 54.214 85.523)"><use xlink:href="#c"/><use xlink:href="#i" x="9.163"/><use xlink:href="#j" x="14.663"/></g><use xlink:href="#f" class="typst-text" transform="matrix(1 0 0 -1 74.685 85.523)"/><use xlink:href="#a" class="typst-text" transform="matrix(1 0 0 -1 78.964 85.523)"/><use xlink:href="#g" class="typst-text" transform="matrix(1 0 0 -1 85.256 85.523)"/><use xlink:href="#b" class="typst-text" transform="matrix(1 0 0 -1 90.147 85.523)"/><use xlink:href="#h" class="typst-text" transform="matrix(1 0 0 -1 95.845 85.523)"/></g></g></g></g></g><path class="typst-shape" fill="none" stroke="#000" stroke-width=".528" stroke-linecap="round" d="M170.67 22.31h66"/><g class="typst-group"><g class="typst-group"><g class="typst-group"><g class="typst-group"><g class="typst-group"><g class="typst-text" transform="matrix(1 0 0 -1 147.714 15.382)"><use xlink:href="#c"/><use xlink:href="#i" x="9.163"/><use xlink:href="#j" x="14.663"/></g><use xlink:href="#f" class="typst-text" transform="matrix(1 0 0 -1 168.185 15.382)"/><use xlink:href="#a" class="typst-text" transform="matrix(1 0 0 -1 172.464 15.382)"/><use xlink:href="#g" class="typst-text" transform="matrix(1 0 0 -1 178.756 15.382)"/><use xlink:href="#b" class="typst-text" transform="matrix(1 0 0 -1 183.647 15.382)"/><use xlink:href="#h" class="typst-text" transform="matrix(1 0 0 -1 189.345 15.382)"/></g></g></g></g></g><path class="typst-shape" fill="none" stroke="#000" stroke-width=".528" stroke-linecap="round" d="M170.67 71.81h66"/><g class="typst-group"><g class="typst-group"><g class="typst-group"><g class="typst-group"><g class="typst-group"><g class="typst-text" transform="matrix(1 0 0 -1 148.781 85.523)"><use xlink:href="#c"/><use xlink:href="#d" x="9.163"/><use xlink:href="#e" x="12.221"/></g><use xlink:href="#f" class="typst-text" transform="matrix(1 0 0 -1 167.118 85.523)"/><use xlink:href="#a" class="typst-text" transform="matrix(1 0 0 -1 171.397 85.523)"/><use xlink:href="#g" class="typst-text" transform="matrix(1 0 0 -1 177.69 85.523)"/><use xlink:href="#b" class="typst-text" transform="matrix(1 0 0 -1 182.58 85.523)"/><use xlink:href="#h" class="typst-text" transform="matrix(1 0 0 -1 188.278 85.523)"/></g></g></g></g></g><path class="typst-shape" fill="none" stroke="#000" stroke-width=".528" stroke-linecap="round" d="M74.42 25.06v44M167.92 25.06v44"/><path class="typst-shape" stroke="#000" stroke-width="1.1" d="M74.42 19.56a2.752 2.752 0 0 0-2.75 2.75 2.752 2.752 0 0 0 2.75 2.75 2.752 2.752 0 0 0 2.75-2.75 2.752 2.752 0 0 0-2.75-2.75ZM74.42 69.06a2.752 2.752 0 0 0-2.75 2.75 2.752 2.752 0 0 0 2.75 2.75 2.752 2.752 0 0 0 2.75-2.75 2.752 2.752 0 0 0-2.75-2.75Z"/><path class="typst-shape" fill="#fff" stroke="#000" stroke-width="1.1" d="M167.92 19.56a2.752 2.752 0 0 0-2.75 2.75 2.752 2.752 0 0 0 2.75 2.75 2.752 2.752 0 0 0 2.75-2.75 2.752 2.752 0 0 0-2.75-2.75ZM167.92 69.06a2.752 2.752 0 0 0-2.75 2.75 2.752 2.752 0 0 0 2.75 2.75 2.752 2.752 0 0 0 2.75-2.75 2.752 2.752 0 0 0-2.75-2.75Z"/></g></g><defs><symbol id="a" overflow="visible"><path d="M5.797 4.103c0 .506-.495.759-1.045.759-.473 0-.847-.253-1.133-.759-.231.506-.616.759-1.177.759-.539 0-.979-.253-1.331-.748C.814 3.685.66 3.366.66 3.157c0-.099.055-.154.165-.154.099 0 .165.055.187.154.209.638.671 1.386 1.408 1.386.363 0 .539-.231.539-.682 0-.231-.198-1.089-.583-2.563-.187-.737-.517-1.1-.99-1.1-.154 0-.297.033-.418.088.286.11.429.308.429.594s-.143.429-.44.429c-.363 0-.638-.308-.638-.671 0-.506.517-.759 1.056-.759.462 0 .836.253 1.133.759.209-.506.605-.759 1.177-.759.528 0 .968.253 1.32.748.297.429.451.748.451.957 0 .099-.055.154-.165.154-.099 0-.154-.055-.187-.154C4.917.957 4.422.198 3.707.198c-.363 0-.55.22-.55.671 0 .143.055.451.176.946L3.707 3.3c.209.825.55 1.243 1.034 1.243.154 0 .297-.033.418-.088-.297-.099-.44-.297-.44-.594 0-.286.154-.429.451-.429.352 0 .627.319.627.671Z"/></symbol><symbol id="b" overflow="visible"><path d="M1.793 4.862c-.495 0-.88-.275-1.155-.825-.209-.429-.319-.726-.319-.891 0-.099.055-.154.176-.154.154 0 .165.066.209.231.253.869.605 1.309 1.056 1.309.143 0 .22-.099.22-.297 0-.176-.055-.429-.176-.748-.418-1.133-.627-1.892-.627-2.299 0-.836.517-1.331 1.364-1.331.363 0 .704.132 1.012.396-.385-1.452-.99-2.178-1.815-2.178-.374 0-.627.121-.759.363.44.022.66.231.66.627 0 .275-.143.418-.44.418-.407 0-.649-.341-.649-.748 0-.605.55-.99 1.188-.99 1.265 0 2.299 1.166 2.574 2.244l1.034 4.158c.033.121.044.209.044.264 0 .22-.121.33-.352.33a.473.473 0 0 1-.418-.253 8.1 8.1 0 0 1-.154-.594l-.704-2.827C3.652.671 3.069.176 2.574.176c-.418 0-.627.275-.627.836 0 .462.187 1.166.55 2.112.143.385.22.649.22.803 0 .539-.385.935-.924.935Z"/></symbol><symbol id="c" overflow="visible"><path d="M3.465 4.543c.506 0 .759-.385.759-1.166V.869c0-.209-.033-.341-.11-.385-.077-.044-.33-.066-.737-.066V0l1.276.033L5.918 0v.418c-.407 0-.649.022-.726.066-.077.044-.121.176-.121.385v1.98c0 .88.572 1.694 1.419 1.694.517 0 .77-.385.77-1.166V.869c0-.209-.044-.341-.121-.385-.077-.044-.33-.066-.737-.066V0l1.276.033L8.943 0v.418c-.352 0-.583.011-.693.044-.11.033-.154.11-.154.242v2.057c0 .517-.022.88-.055 1.089-.11.671-.605 1.012-1.474 1.012-.693 0-1.21-.319-1.562-.968-.154.649-.638.968-1.463.968-.693 0-1.221-.33-1.573-.99v.99L.352 4.741v-.418c.396 0 .638-.033.726-.099.088-.066.121-.209.121-.462V.869c0-.209-.044-.341-.121-.385C1.001.44.759.418.352.418V0l1.276.033L2.893 0v.418c-.407 0-.66.022-.737.066-.077.044-.121.176-.121.385v1.98c0 .891.583 1.694 1.43 1.694Z"/></symbol><symbol id="d" overflow="visible"><path d="M2.134 6.611a.62.62 0 0 1-.605.616.63.63 0 0 1-.616-.616c0-.33.275-.627.605-.627.341 0 .616.286.616.627ZM2.717 0v.429c-.363 0-.583.022-.649.066-.066.044-.088.165-.088.363v4.037L.407 4.763v-.418c.363 0 .594-.033.671-.088.077-.055.11-.209.11-.462V.869c0-.209-.033-.341-.11-.385C1.001.44.759.429.363.429V0l1.21.033Z"/></symbol><symbol id="e" overflow="visible"><path d="M3.454 4.543c.495 0 .748-.385.748-1.166V.869c0-.209-.033-.341-.11-.385C4.015.44 3.773.418 3.366.418V0l1.265.033L5.885 0v.418c-.352 0-.583.011-.693.044-.11.033-.154.11-.154.242v2.057c0 .517-.011.88-.044 1.089-.11.671-.605 1.012-1.474 1.012-.693 0-1.21-.33-1.551-.99v.99L.352 4.741v-.418c.396 0 .638-.033.726-.099.088-.066.121-.209.121-.462V.869c0-.209-.044-.341-.121-.385C1.001.44.759.418.352.418V0l1.265.033L2.871 0v.418c-.407 0-.638.022-.715.066-.077.044-.121.176-.121.385v1.98c0 .891.561 1.694 1.419 1.694Z"/></symbol><symbol id="f" overflow="visible"><path d="M3.498-2.728c.099 0 .154.055.154.154 0 .033-.022.077-.055.121-.572.44-1.034 1.166-1.375 2.167a7.934 7.934 0 0 0-.451 2.574v.924c0 .847.154 1.705.451 2.574.341 1.001.803 1.727 1.375 2.167a.177.177 0 0 1 .055.121c0 .099-.055.154-.154.154a.191.191 0 0 1-.077-.033c-.66-.506-1.21-1.254-1.661-2.255-.429-.957-.649-1.859-.649-2.728v-.924c0-.869.22-1.771.649-2.728.451-1.001 1.001-1.749 1.661-2.255a.191.191 0 0 1 .077-.033Z"/></symbol><symbol id="g" overflow="visible"><path d="M1.529 1.166C1.177 1.166.946.902.946.55c0-.33.253-.605.583-.605.154 0 .286.044.385.143L1.925 0c0-.693-.231-1.287-.693-1.76-.077-.088-.121-.154-.121-.198 0-.11.044-.165.143-.165.099 0 .231.132.418.385A2.95 2.95 0 0 1 2.233 0c0 .583-.198 1.166-.704 1.166Z"/></symbol><symbol id="h" overflow="visible"><path d="M.858-2.695c.66.506 1.21 1.254 1.661 2.255.429.957.649 1.859.649 2.728v.924c0 .869-.22 1.771-.649 2.728C2.068 6.941 1.518 7.689.858 8.195a.191.191 0 0 1-.077.033c-.099 0-.154-.055-.154-.154 0-.044.022-.088.055-.121.572-.44 1.034-1.166 1.375-2.167a7.934 7.934 0 0 0 .451-2.574v-.924c0-.847-.154-1.705-.451-2.574-.341-1.001-.803-1.727-1.375-2.167-.033-.044-.055-.088-.055-.121 0-.099.055-.154.154-.154.011 0 .044.011.077.033Z"/></symbol><symbol id="i" overflow="visible"><path d="M5.313 1.001v.649h-.352v-.649c0-.429-.121-.649-.352-.649-.22 0-.352.275-.352.495v2.167c0 .385-.044.671-.121.869-.264.649-1.023 1.045-1.793 1.045-.847 0-1.683-.473-1.683-1.265 0-.363.187-.55.55-.55.363 0 .539.176.539.539 0 .319-.165.506-.506.539.242.275.605.418 1.078.418.682 0 1.1-.627 1.1-1.342v-.363c-.858-.055-1.507-.187-1.958-.396C.726 2.167.352 1.694.352 1.067c0-.286.11-.528.319-.715.352-.319.836-.473 1.452-.473.649 0 1.111.275 1.397.836.077-.418.385-.781.858-.781.583 0 .935.462.935 1.067ZM2.2.198c-.506 0-.924.374-.924.88 0 1.023 1.067 1.463 2.145 1.518V1.551C3.421.814 2.937.198 2.2.198Z"/></symbol><symbol id="j" overflow="visible"><path d="M4.598.033c.253.011.616 0 1.078-.033v.418c-.583 0-.803.011-1.034.319l-1.43 1.848c.473.583.792.979.968 1.188.308.352.737.539 1.298.55v.418a12.965 12.965 0 0 0-.924-.033c-.407 0-.77.011-1.089.033v-.418c.209-.022.319-.121.319-.297 0-.099-.055-.22-.154-.352l-.638-.792-.814 1.045c-.055.077-.088.132-.088.165 0 .143.132.22.385.231v.418l-1.221-.033c-.286-.011-.638 0-1.067.033v-.418c.396 0 .649-.033.759-.088.11-.055.286-.242.528-.561L2.519 2.31a59.847 59.847 0 0 0-.99-1.254C1.177.627.715.418.132.418V0c.407.033.715.044.946.033L2.145 0v.418c-.209.033-.308.132-.308.297 0 .044.011.099.033.154.066.143.363.517.891 1.144L3.553.979c.121-.154.187-.264.22-.33 0-.143-.132-.22-.396-.231V0Z"/></symbol></defs></svg>