<svg class="typst-doc" viewBox="0 0 203.83858267716536 115.83858267716535" width="203.83858267716536pt"
    height="115.83858267716535pt" xmlns="http://www.w3.org/2000/svg" xmlns:xlink="http://www.w3.org/1999/xlink"
    xmlns:h5="http://www.w3.org/1999/xhtml">
    <path class="typst-shape" fill="#ffffff" fill-rule="nonzero"
        d="M 0 0 L 0 115.838585 L 203.83858 115.838585 L 203.83858 0 Z " />
    <g>
        <g transform="translate(5.669291338582677 5.669291338582677)">
            <g class="typst-group">
                <g>
                    <g transform="translate(0 0)">
                        <g class="typst-group">
                            <g>
                                <g transform="translate(0 2.7500000314960613)">
                                    <path class="typst-shape" fill="none" stroke="#000000" stroke-width="0.528"
                                        stroke-linecap="round" stroke-linejoin="miter" stroke-miterlimit="4"
                                        d="M 0 0 C 0 0 192.5 0 192.5 0 " />
                                </g>
                                <g transform="translate(0 52.250000031496064)">
                                    <path class="typst-shape" fill="none" stroke="#000000" stroke-width="0.528"
                                        stroke-linecap="round" stroke-linejoin="miter" stroke-miterlimit="4"
                                        d="M 0 0 C 0 0 192.5 0 192.5 0 " />
                                </g>
                                <g transform="translate(0 101.75000003149606)">
                                    <path class="typst-shape" fill="none" stroke="#000000" stroke-width="0.528"
                                        stroke-linecap="round" stroke-linejoin="miter" stroke-miterlimit="4"
                                        d="M 0 0 C 0 0 192.5 0 192.5 0 " />
                                </g>
                                <g transform="translate(46.74999999999999 5.500000002545332)">
                                    <path class="typst-shape" fill="none" stroke="#000000" stroke-width="0.528"
                                        stroke-linecap="round" stroke-linejoin="miter" stroke-miterlimit="4"
                                        d="M 0.0000000000000062941777 0 C 0.0000000000000062941777 0 0 44 0 44 " />
                                </g>
                                <g transform="translate(96.25 5.500000002546389)">
                                    <path class="typst-shape" fill="none" stroke="#000000" stroke-width="0.528"
                                        stroke-linecap="round" stroke-linejoin="miter" stroke-miterlimit="4"
                                        d="M 0 0 C 0 0 0 93.5 0 93.5 " />
                                </g>
                                <g transform="translate(145.75 55.00000000254553)">
                                    <path class="typst-shape" fill="none" stroke="#000000" stroke-width="0.528"
                                        stroke-linecap="round" stroke-linejoin="miter" stroke-miterlimit="4"
                                        d="M 0 0 C 0 0 0 44 0 44 " />
                                </g>
                                <g transform="translate(43.999999968503936 0)">
                                    <path class="typst-shape" fill="#000000" fill-rule="nonzero" stroke="#000000"
                                        stroke-width="1.1" stroke-linecap="butt" stroke-linejoin="miter"
                                        stroke-miterlimit="4"
                                        d="M 2.75 0 C 1.232594 0 0 1.232594 0 2.75 C 0 2.75 0 2.75 0 2.75 C 0 4.267406 1.232594 5.5 2.75 5.5 C 2.75 5.5 2.75 5.5 2.75 5.5 C 4.267406 5.5 5.5 4.267406 5.5 2.75 C 5.5 2.75 5.5 2.75 5.5 2.75 C 5.5 1.232594 4.267406 0 2.75 0 C 2.75 0 2.75 0 2.75 0 Z " />
                                </g>
                                <g transform="translate(46.75 2.7500000314960613)">
                                    <g class="typst-group">
                                        <g>
                                            <g transform="translate(0 0)">
                                                <g class="typst-group">
                                                    <g>
                                                        <g transform="translate(0 6.5)">
                                                            <g class="typst-group">
                                                                <g />
                                                            </g>
                                                        </g>
                                                    </g>
                                                </g>
                                            </g>
                                        </g>
                                    </g>
                                </g>
                                <g transform="translate(43.999999968503936 49.49999999999999)">
                                    <path class="typst-shape" fill="#000000" fill-rule="nonzero" stroke="#000000"
                                        stroke-width="1.1" stroke-linecap="butt" stroke-linejoin="miter"
                                        stroke-miterlimit="4"
                                        d="M 2.75 0 C 1.232594 0 0 1.232594 0 2.75 C 0 2.75 0 2.75 0 2.75 C 0 4.267406 1.232594 5.5 2.75 5.5 C 2.75 5.5 2.75 5.5 2.75 5.5 C 4.267406 5.5 5.5 4.267406 5.5 2.75 C 5.5 2.75 5.5 2.75 5.5 2.75 C 5.5 1.232594 4.267406 0 2.75 0 C 2.75 0 2.75 0 2.75 0 Z " />
                                </g>
                                <g transform="translate(46.75 52.250000031496064)">
                                    <g class="typst-group">
                                        <g>
                                            <g transform="translate(0 0)">
                                                <g class="typst-group">
                                                    <g>
                                                        <g transform="translate(0 6.5)">
                                                            <g class="typst-group">
                                                                <g />
                                                            </g>
                                                        </g>
                                                    </g>
                                                </g>
                                            </g>
                                        </g>
                                    </g>
                                </g>
                                <g transform="translate(93.49999996850394 0)">
                                    <path class="typst-shape" fill="#000000" fill-rule="nonzero" stroke="#000000"
                                        stroke-width="1.1" stroke-linecap="butt" stroke-linejoin="miter"
                                        stroke-miterlimit="4"
                                        d="M 2.75 0 C 1.232594 0 0 1.232594 0 2.75 C 0 2.75 0 2.75 0 2.75 C 0 4.267406 1.232594 5.5 2.75 5.5 C 2.75 5.5 2.75 5.5 2.75 5.5 C 4.267406 5.5 5.5 4.267406 5.5 2.75 C 5.5 2.75 5.5 2.75 5.5 2.75 C 5.5 1.232594 4.267406 0 2.75 0 C 2.75 0 2.75 0 2.75 0 Z " />
                                </g>
                                <g transform="translate(96.25 2.7500000314960613)">
                                    <g class="typst-group">
                                        <g>
                                            <g transform="translate(0 0)">
                                                <g class="typst-group">
                                                    <g>
                                                        <g transform="translate(0 6.5)">
                                                            <g class="typst-group">
                                                                <g />
                                                            </g>
                                                        </g>
                                                    </g>
                                                </g>
                                            </g>
                                        </g>
                                    </g>
                                </g>
                                <g transform="translate(93.49999996850394 98.99999999999999)">
                                    <path class="typst-shape" fill="#000000" fill-rule="nonzero" stroke="#000000"
                                        stroke-width="1.1" stroke-linecap="butt" stroke-linejoin="miter"
                                        stroke-miterlimit="4"
                                        d="M 2.75 0 C 1.232594 0 0 1.232594 0 2.75 C 0 2.75 0 2.75 0 2.75 C 0 4.267406 1.232594 5.5 2.75 5.5 C 2.75 5.5 2.75 5.5 2.75 5.5 C 4.267406 5.5 5.5 4.267406 5.5 2.75 C 5.5 2.75 5.5 2.75 5.5 2.75 C 5.5 1.232594 4.267406 0 2.75 0 C 2.75 0 2.75 0 2.75 0 Z " />
                                </g>
                                <g transform="translate(96.25 101.75000003149606)">
                                    <g class="typst-group">
                                        <g>
                                            <g transform="translate(0 0)">
                                                <g class="typst-group">
                                                    <g>
                                                        <g transform="translate(0 6.5)">
                                                            <g class="typst-group">
                                                                <g />
                                                            </g>
                                                        </g>
                                                    </g>
                                                </g>
                                            </g>
                                        </g>
                                    </g>
                                </g>
                                <g transform="translate(142.99999996850391 49.49999999999999)">
                                    <path class="typst-shape" fill="#000000" fill-rule="nonzero" stroke="#000000"
                                        stroke-width="1.1" stroke-linecap="butt" stroke-linejoin="miter"
                                        stroke-miterlimit="4"
                                        d="M 2.75 0 C 1.232594 0 0 1.232594 0 2.75 C 0 2.75 0 2.75 0 2.75 C 0 4.267406 1.232594 5.5 2.75 5.5 C 2.75 5.5 2.75 5.5 2.75 5.5 C 4.267406 5.5 5.5 4.267406 5.5 2.75 C 5.5 2.75 5.5 2.75 5.5 2.75 C 5.5 1.232594 4.267406 0 2.75 0 C 2.75 0 2.75 0 2.75 0 Z " />
                                </g>
                                <g transform="translate(145.75 52.250000031496064)">
                                    <g class="typst-group">
                                        <g>
                                            <g transform="translate(0 0)">
                                                <g class="typst-group">
                                                    <g>
                                                        <g transform="translate(0 6.5)">
                                                            <g class="typst-group">
                                                                <g />
                                                            </g>
                                                        </g>
                                                    </g>
                                                </g>
                                            </g>
                                        </g>
                                    </g>
                                </g>
                                <g transform="translate(142.99999996850391 98.99999999999999)">
                                    <path class="typst-shape" fill="#000000" fill-rule="nonzero" stroke="#000000"
                                        stroke-width="1.1" stroke-linecap="butt" stroke-linejoin="miter"
                                        stroke-miterlimit="4"
                                        d="M 2.75 0 C 1.232594 0 0 1.232594 0 2.75 C 0 2.75 0 2.75 0 2.75 C 0 4.267406 1.232594 5.5 2.75 5.5 C 2.75 5.5 2.75 5.5 2.75 5.5 C 4.267406 5.5 5.5 4.267406 5.5 2.75 C 5.5 2.75 5.5 2.75 5.5 2.75 C 5.5 1.232594 4.267406 0 2.75 0 C 2.75 0 2.75 0 2.75 0 Z " />
                                </g>
                                <g transform="translate(145.75 101.75000003149606)">
                                    <g class="typst-group">
                                        <g>
                                            <g transform="translate(0 0)">
                                                <g class="typst-group">
                                                    <g>
                                                        <g transform="translate(0 6.5)">
                                                            <g class="typst-group">
                                                                <g />
                                                            </g>
                                                        </g>
                                                    </g>
                                                </g>
                                            </g>
                                        </g>
                                    </g>
                                </g>
                            </g>
                        </g>
                    </g>
                </g>
            </g>
        </g>
    </g>
</svg>