<svg class="typst-doc" viewBox="0 0 253.33858267716536 165.33858267716536" width="253.33858267716536pt"
    height="165.33858267716536pt" xmlns="http://www.w3.org/2000/svg" xmlns:xlink="http://www.w3.org/1999/xlink"
    xmlns:h5="http://www.w3.org/1999/xhtml">
    <path class="typst-shape" fill="#ffffff" fill-rule="nonzero"
        d="M 0 0 L 0 165.33858 L 253.33858 165.33858 L 253.33858 0 Z " />
    <g>
        <g transform="translate(5.669291338582677 5.669291338582677)">
            <g class="typst-group">
                <g>
                    <g transform="translate(0 0)">
                        <g class="typst-group">
                            <g>
                                <g transform="translate(0 2.7500000314960737)">
                                    <path class="typst-shape" fill="none" stroke="#000000" stroke-width="0.528"
                                        stroke-linecap="round" stroke-linejoin="miter" stroke-miterlimit="4"
                                        d="M 0 0 C 0 0 242 0 242 0 " />
                                </g>
                                <g transform="translate(0 52.250000031496064)">
                                    <path class="typst-shape" fill="none" stroke="#000000" stroke-width="0.528"
                                        stroke-linecap="round" stroke-linejoin="miter" stroke-miterlimit="4"
                                        d="M 0 0 C 0 0 242 0 242 0 " />
                                </g>
                                <g transform="translate(0 101.75000003149606)">
                                    <path class="typst-shape" fill="none" stroke="#000000" stroke-width="0.528"
                                        stroke-linecap="round" stroke-linejoin="miter" stroke-miterlimit="4"
                                        d="M 0 0 C 0 0 242 0 242 0 " />
                                </g>
                                <g transform="translate(0 151.25000003149609)">
                                    <path class="typst-shape" fill="none" stroke="#000000" stroke-width="0.528"
                                        stroke-linecap="round" stroke-linejoin="miter" stroke-miterlimit="4"
                                        d="M 0 0 C 0 0 242 0 242 0 " />
                                </g>
                                <g transform="translate(46.74999999999999 5.50000000254445)">
                                    <path class="typst-shape" fill="none" stroke="#000000" stroke-width="0.528"
                                        stroke-linecap="round" stroke-linejoin="miter" stroke-miterlimit="4"
                                        d="M 0.0000000000000062941777 0 C 0.0000000000000062941777 0 0 44 0 44 " />
                                </g>
                                <g transform="translate(46.74999999999999 104.5000000025462)">
                                    <path class="typst-shape" fill="none" stroke="#000000" stroke-width="0.528"
                                        stroke-linecap="round" stroke-linejoin="miter" stroke-miterlimit="4"
                                        d="M 0.0000000000000062941777 0 C 0.0000000000000062941777 0 0 44 0 44 " />
                                </g>
                                <g transform="translate(96.25000000000003 5.500000002542336)">
                                    <path class="typst-shape" fill="none" stroke="#000000" stroke-width="0.528"
                                        stroke-linecap="round" stroke-linejoin="miter" stroke-miterlimit="4"
                                        d="M 0 0 C 0 0 0 93.5 0 93.5 " />
                                </g>
                                <g transform="translate(145.75000000000003 55.000000002548276)">
                                    <path class="typst-shape" fill="none" stroke="#000000" stroke-width="0.528"
                                        stroke-linecap="round" stroke-linejoin="miter" stroke-miterlimit="4"
                                        d="M 0 0 C 0 0 0 93.5 0 93.5 " />
                                </g>
                                <g transform="translate(195.25 55.000000002546116)">
                                    <path class="typst-shape" fill="none" stroke="#000000" stroke-width="0.528"
                                        stroke-linecap="round" stroke-linejoin="miter" stroke-miterlimit="4"
                                        d="M 0 0 C 0 0 0 44 0 44 " />
                                </g>
                                <g transform="translate(43.999999968503936 0)">
                                    <path class="typst-shape" fill="#000000" fill-rule="nonzero" stroke="#000000"
                                        stroke-width="1.1" stroke-linecap="butt" stroke-linejoin="miter"
                                        stroke-miterlimit="4"
                                        d="M 2.75 0 C 1.232594 0 0 1.232594 0 2.75 C 0 2.75 0 2.75 0 2.75 C 0 4.267406 1.232594 5.5 2.75 5.5 C 2.75 5.5 2.75 5.5 2.75 5.5 C 4.267406 5.5 5.5 4.267406 5.5 2.75 C 5.5 2.75 5.5 2.75 5.5 2.75 C 5.5 1.232594 4.267406 0 2.75 0 C 2.75 0 2.75 0 2.75 0 Z " />
                                </g>
                                <g transform="translate(46.75 2.7500000314960737)">
                                    <g class="typst-group">
                                        <g>
                                            <g transform="translate(0 0)">
                                                <g class="typst-group">
                                                    <g>
                                                        <g transform="translate(0 6.5)">
                                                            <g class="typst-group">
                                                                <g />
                                                            </g>
                                                        </g>
                                                    </g>
                                                </g>
                                            </g>
                                        </g>
                                    </g>
                                </g>
                                <g transform="translate(43.999999968503936 49.50000000000001)">
                                    <path class="typst-shape" fill="#000000" fill-rule="nonzero" stroke="#000000"
                                        stroke-width="1.1" stroke-linecap="butt" stroke-linejoin="miter"
                                        stroke-miterlimit="4"
                                        d="M 2.75 0 C 1.232594 0 0 1.232594 0 2.75 C 0 2.75 0 2.75 0 2.75 C 0 4.267406 1.232594 5.5 2.75 5.5 C 2.75 5.5 2.75 5.5 2.75 5.5 C 4.267406 5.5 5.5 4.267406 5.5 2.75 C 5.5 2.75 5.5 2.75 5.5 2.75 C 5.5 1.232594 4.267406 0 2.75 0 C 2.75 0 2.75 0 2.75 0 Z " />
                                </g>
                                <g transform="translate(46.75 52.250000031496064)">
                                    <g class="typst-group">
                                        <g>
                                            <g transform="translate(0 0)">
                                                <g class="typst-group">
                                                    <g>
                                                        <g transform="translate(0 6.5)">
                                                            <g class="typst-group">
                                                                <g />
                                                            </g>
                                                        </g>
                                                    </g>
                                                </g>
                                            </g>
                                        </g>
                                    </g>
                                </g>
                                <g transform="translate(43.999999968503936 99)">
                                    <path class="typst-shape" fill="#000000" fill-rule="nonzero" stroke="#000000"
                                        stroke-width="1.1" stroke-linecap="butt" stroke-linejoin="miter"
                                        stroke-miterlimit="4"
                                        d="M 2.75 0 C 1.232594 0 0 1.232594 0 2.75 C 0 2.75 0 2.75 0 2.75 C 0 4.267406 1.232594 5.5 2.75 5.5 C 2.75 5.5 2.75 5.5 2.75 5.5 C 4.267406 5.5 5.5 4.267406 5.5 2.75 C 5.5 2.75 5.5 2.75 5.5 2.75 C 5.5 1.232594 4.267406 0 2.75 0 C 2.75 0 2.75 0 2.75 0 Z " />
                                </g>
                                <g transform="translate(46.75 101.75000003149606)">
                                    <g class="typst-group">
                                        <g>
                                            <g transform="translate(0 0)">
                                                <g class="typst-group">
                                                    <g>
                                                        <g transform="translate(0 6.5)">
                                                            <g class="typst-group">
                                                                <g />
                                                            </g>
                                                        </g>
                                                    </g>
                                                </g>
                                            </g>
                                        </g>
                                    </g>
                                </g>
                                <g transform="translate(43.999999968503936 148.5)">
                                    <path class="typst-shape" fill="#000000" fill-rule="nonzero" stroke="#000000"
                                        stroke-width="1.1" stroke-linecap="butt" stroke-linejoin="miter"
                                        stroke-miterlimit="4"
                                        d="M 2.75 0 C 1.232594 0 0 1.232594 0 2.75 C 0 2.75 0 2.75 0 2.75 C 0 4.267406 1.232594 5.5 2.75 5.5 C 2.75 5.5 2.75 5.5 2.75 5.5 C 4.267406 5.5 5.5 4.267406 5.5 2.75 C 5.5 2.75 5.5 2.75 5.5 2.75 C 5.5 1.232594 4.267406 0 2.75 0 C 2.75 0 2.75 0 2.75 0 Z " />
                                </g>
                                <g transform="translate(46.75 151.25000003149609)">
                                    <g class="typst-group">
                                        <g>
                                            <g transform="translate(0 0)">
                                                <g class="typst-group">
                                                    <g>
                                                        <g transform="translate(0 6.5)">
                                                            <g class="typst-group">
                                                                <g />
                                                            </g>
                                                        </g>
                                                    </g>
                                                </g>
                                            </g>
                                        </g>
                                    </g>
                                </g>
                                <g transform="translate(93.49999996850394 0)">
                                    <path class="typst-shape" fill="#000000" fill-rule="nonzero" stroke="#000000"
                                        stroke-width="1.1" stroke-linecap="butt" stroke-linejoin="miter"
                                        stroke-miterlimit="4"
                                        d="M 2.75 0 C 1.232594 0 0 1.232594 0 2.75 C 0 2.75 0 2.75 0 2.75 C 0 4.267406 1.232594 5.5 2.75 5.5 C 2.75 5.5 2.75 5.5 2.75 5.5 C 4.267406 5.5 5.5 4.267406 5.5 2.75 C 5.5 2.75 5.5 2.75 5.5 2.75 C 5.5 1.232594 4.267406 0 2.75 0 C 2.75 0 2.75 0 2.75 0 Z " />
                                </g>
                                <g transform="translate(96.25 2.7500000314960737)">
                                    <g class="typst-group">
                                        <g>
                                            <g transform="translate(0 0)">
                                                <g class="typst-group">
                                                    <g>
                                                        <g transform="translate(0 6.5)">
                                                            <g class="typst-group">
                                                                <g />
                                                            </g>
                                                        </g>
                                                    </g>
                                                </g>
                                            </g>
                                        </g>
                                    </g>
                                </g>
                                <g transform="translate(93.49999996850394 99)">
                                    <path class="typst-shape" fill="#000000" fill-rule="nonzero" stroke="#000000"
                                        stroke-width="1.1" stroke-linecap="butt" stroke-linejoin="miter"
                                        stroke-miterlimit="4"
                                        d="M 2.75 0 C 1.232594 0 0 1.232594 0 2.75 C 0 2.75 0 2.75 0 2.75 C 0 4.267406 1.232594 5.5 2.75 5.5 C 2.75 5.5 2.75 5.5 2.75 5.5 C 4.267406 5.5 5.5 4.267406 5.5 2.75 C 5.5 2.75 5.5 2.75 5.5 2.75 C 5.5 1.232594 4.267406 0 2.75 0 C 2.75 0 2.75 0 2.75 0 Z " />
                                </g>
                                <g transform="translate(96.25 101.75000003149606)">
                                    <g class="typst-group">
                                        <g>
                                            <g transform="translate(0 0)">
                                                <g class="typst-group">
                                                    <g>
                                                        <g transform="translate(0 6.5)">
                                                            <g class="typst-group">
                                                                <g />
                                                            </g>
                                                        </g>
                                                    </g>
                                                </g>
                                            </g>
                                        </g>
                                    </g>
                                </g>
                                <g transform="translate(142.99999996850391 49.50000000000001)">
                                    <path class="typst-shape" fill="#000000" fill-rule="nonzero" stroke="#000000"
                                        stroke-width="1.1" stroke-linecap="butt" stroke-linejoin="miter"
                                        stroke-miterlimit="4"
                                        d="M 2.75 0 C 1.232594 0 0 1.232594 0 2.75 C 0 2.75 0 2.75 0 2.75 C 0 4.267406 1.232594 5.5 2.75 5.5 C 2.75 5.5 2.75 5.5 2.75 5.5 C 4.267406 5.5 5.5 4.267406 5.5 2.75 C 5.5 2.75 5.5 2.75 5.5 2.75 C 5.5 1.232594 4.267406 0 2.75 0 C 2.75 0 2.75 0 2.75 0 Z " />
                                </g>
                                <g transform="translate(145.75 52.250000031496064)">
                                    <g class="typst-group">
                                        <g>
                                            <g transform="translate(0 0)">
                                                <g class="typst-group">
                                                    <g>
                                                        <g transform="translate(0 6.5)">
                                                            <g class="typst-group">
                                                                <g />
                                                            </g>
                                                        </g>
                                                    </g>
                                                </g>
                                            </g>
                                        </g>
                                    </g>
                                </g>
                                <g transform="translate(142.99999996850391 148.5)">
                                    <path class="typst-shape" fill="#000000" fill-rule="nonzero" stroke="#000000"
                                        stroke-width="1.1" stroke-linecap="butt" stroke-linejoin="miter"
                                        stroke-miterlimit="4"
                                        d="M 2.75 0 C 1.232594 0 0 1.232594 0 2.75 C 0 2.75 0 2.75 0 2.75 C 0 4.267406 1.232594 5.5 2.75 5.5 C 2.75 5.5 2.75 5.5 2.75 5.5 C 4.267406 5.5 5.5 4.267406 5.5 2.75 C 5.5 2.75 5.5 2.75 5.5 2.75 C 5.5 1.232594 4.267406 0 2.75 0 C 2.75 0 2.75 0 2.75 0 Z " />
                                </g>
                                <g transform="translate(145.75 151.25000003149609)">
                                    <g class="typst-group">
                                        <g>
                                            <g transform="translate(0 0)">
                                                <g class="typst-group">
                                                    <g>
                                                        <g transform="translate(0 6.5)">
                                                            <g class="typst-group">
                                                                <g />
                                                            </g>
                                                        </g>
                                                    </g>
                                                </g>
                                            </g>
                                        </g>
                                    </g>
                                </g>
                                <g transform="translate(192.49999996850391 49.50000000000001)">
                                    <path class="typst-shape" fill="#000000" fill-rule="nonzero" stroke="#000000"
                                        stroke-width="1.1" stroke-linecap="butt" stroke-linejoin="miter"
                                        stroke-miterlimit="4"
                                        d="M 2.75 0 C 1.232594 0 0 1.232594 0 2.75 C 0 2.75 0 2.75 0 2.75 C 0 4.267406 1.232594 5.5 2.75 5.5 C 2.75 5.5 2.75 5.5 2.75 5.5 C 4.267406 5.5 5.5 4.267406 5.5 2.75 C 5.5 2.75 5.5 2.75 5.5 2.75 C 5.5 1.232594 4.267406 0 2.75 0 C 2.75 0 2.75 0 2.75 0 Z " />
                                </g>
                                <g transform="translate(195.25 52.250000031496064)">
                                    <g class="typst-group">
                                        <g>
                                            <g transform="translate(0 0)">
                                                <g class="typst-group">
                                                    <g>
                                                        <g transform="translate(0 6.5)">
                                                            <g class="typst-group">
                                                                <g />
                                                            </g>
                                                        </g>
                                                    </g>
                                                </g>
                                            </g>
                                        </g>
                                    </g>
                                </g>
                                <g transform="translate(192.49999996850391 99)">
                                    <path class="typst-shape" fill="#000000" fill-rule="nonzero" stroke="#000000"
                                        stroke-width="1.1" stroke-linecap="butt" stroke-linejoin="miter"
                                        stroke-miterlimit="4"
                                        d="M 2.75 0 C 1.232594 0 0 1.232594 0 2.75 C 0 2.75 0 2.75 0 2.75 C 0 4.267406 1.232594 5.5 2.75 5.5 C 2.75 5.5 2.75 5.5 2.75 5.5 C 4.267406 5.5 5.5 4.267406 5.5 2.75 C 5.5 2.75 5.5 2.75 5.5 2.75 C 5.5 1.232594 4.267406 0 2.75 0 C 2.75 0 2.75 0 2.75 0 Z " />
                                </g>
                                <g transform="translate(195.25 101.75000003149606)">
                                    <g class="typst-group">
                                        <g>
                                            <g transform="translate(0 0)">
                                                <g class="typst-group">
                                                    <g>
                                                        <g transform="translate(0 6.5)">
                                                            <g class="typst-group">
                                                                <g />
                                                            </g>
                                                        </g>
                                                    </g>
                                                </g>
                                            </g>
                                        </g>
                                    </g>
                                </g>
                            </g>
                        </g>
                    </g>
                </g>
            </g>
        </g>
    </g>
</svg>